<?xml version="1.0" encoding="UTF-8" standalone="no"?>
<svg
   xmlns:dc="http://purl.org/dc/elements/1.1/"
   xmlns:cc="http://creativecommons.org/ns#"
   xmlns:rdf="http://www.w3.org/1999/02/22-rdf-syntax-ns#"
   xmlns:svg="http://www.w3.org/2000/svg"
   xmlns="http://www.w3.org/2000/svg"
   viewBox="0 0 666.66669 666.66669"
   height="666.66669"
   width="666.66669"
   xml:space="preserve"
   id="svg2"
   version="1.1"><metadata
     id="metadata8"><rdf:RDF><cc:Work
         rdf:about=""><dc:format>image/svg+xml</dc:format><dc:type
           rdf:resource="http://purl.org/dc/dcmitype/StillImage" /></cc:Work></rdf:RDF></metadata><defs
     id="defs6"><clipPath
       id="clipPath18"
       clipPathUnits="userSpaceOnUse"><path
         id="path16"
         d="m 59.141,187.255 h 90 v 125 h -90 z" /></clipPath></defs><g
     transform="matrix(1.3333333,0,0,-1.3333333,0,666.66667)"
     id="g10"><g
       id="g12"><g
         clip-path="url(#clipPath18)"
         id="g14"><g
           transform="translate(119.724,261.2656)"
           id="g20"><path
             id="path22"
             style="fill:#008000;fill-opacity:1;fill-rule:evenodd;stroke:none"
             d="m 0,0 v -20.495 c 0,-2.083 -1.87,-3.771 -4.177,-3.771 -2.307,0 -4.177,1.688 -4.177,3.771 v 19.719 h -3.641 v 20.021 c 0,5.984 5.37,10.833 11.995,10.833 z m -24.76,8.536 1.645,-29.541 c 0.094,-1.703 -1.729,-3.167 -3.791,-3.255 -2.063,-0.094 -4.042,1.208 -4.136,2.911 -0.005,0.115 -0.005,0.234 0,0.344 l 1.646,29.541 c -2.906,0.652 -4.187,3.266 -4.187,6.391 v 13.964 c 0,0.656 0.531,1.187 1.182,1.187 0.651,0 1.177,-0.531 1.177,-1.187 V 18.583 c 0,-0.328 0.271,-0.593 0.599,-0.593 0.328,0 0.594,0.265 0.594,0.593 v 10.308 c 0,0.656 0.526,1.187 1.177,1.187 0.651,0 1.182,-0.531 1.182,-1.187 V 18.583 c 0,-0.328 0.266,-0.593 0.594,-0.593 0.328,0 0.594,0.265 0.594,0.593 v 10.308 c 0,0.656 0.531,1.187 1.182,1.187 0.651,0 1.177,-0.531 1.177,-1.187 V 18.583 c 0,-0.328 0.271,-0.599 0.599,-0.593 0.328,0 0.594,0.265 0.594,0.593 v 10.308 c 0,0.656 0.526,1.187 1.177,1.187 0.651,0 1.182,-0.531 1.182,-1.187 V 14.927 c 0,-3.125 -1.276,-5.739 -4.187,-6.391 m 9.171,-82.546 c -9.937,0 -17.994,1.213 -17.994,2.713 0,1.5 8.057,2.719 17.994,2.719 9.933,0 17.99,-1.219 17.99,-2.719 0,-1.5 -8.057,-2.713 -17.99,-2.713 m -7.197,23.322 c -1.761,5.172 -4.985,9.709 -9.271,13.063 l -10.542,8.24 c -10.823,8.463 -17.396,21.296 -17.969,35.083 0,25.01 20.136,45.292 44.979,45.292 C 9.25,50.99 29.385,30.708 29.385,5.698 28.812,-8.089 22.24,-20.922 11.417,-29.385 l -10.542,-8.24 c -4.286,-3.354 -7.51,-7.891 -9.271,-13.063 l -1.239,-3.64 c -0.87,-2.563 -3.266,-4.287 -5.954,-4.287 -2.692,0 -5.088,1.724 -5.958,4.287 z" /></g></g></g><text
       id="text28"
       style="font-variant:normal;font-weight:bold;font-stretch:normal;font-size:36.56010056px;font-family:'Trajan Pro';-inkscape-font-specification:TrajanPro-Bold;writing-mode:lr-tb;fill:#000000;fill-opacity:1;fill-rule:nonzero;stroke:none"
       transform="matrix(1,0,0,-1,173.5205,238.8467)"><tspan
         id="tspan24"
         y="0"
         x="0 22.740383 52.975586 82.113983">Food</tspan><tspan
         id="tspan26"
         y="0"
         x="112.49543 123.46346 149.42113 174.31856 202.10423 221.84668 245.16838"> Trusty</tspan></text>
</g></svg>